<svg width="272" height="37" viewBox="0 0 272 37" fill="none" xmlns="http://www.w3.org/2000/svg">
<path d="M5.94 16.5H0.9V13.584H5.94V7.716H8.82V13.584H14.04V16.5H8.82V22.368H5.94V16.5ZM23.5094 30.324C21.1814 30.324 19.4054 29.676 18.1814 28.38C16.9814 27.06 16.3814 25.212 16.3814 22.836V21.864H20.1974V22.512C20.2454 24 20.4974 25.14 20.9534 25.932C21.4334 26.724 22.2854 27.12 23.5094 27.12C24.8054 27.12 25.6814 26.676 26.1374 25.788C26.6174 24.876 26.8574 23.532 26.8574 21.756C26.8574 20.124 26.5574 18.852 25.9574 17.94C25.3574 17.004 24.3854 16.488 23.0414 16.392C22.9454 16.368 22.7654 16.356 22.5014 16.356V12.504H23.0054C24.3734 12.456 25.3574 12.096 25.9574 11.424C26.5574 10.752 26.8574 9.636 26.8574 8.076C26.8574 6.636 26.6174 5.556 26.1374 4.836C25.6574 4.092 24.7934 3.72 23.5454 3.72C22.2974 3.72 21.4334 4.116 20.9534 4.908C20.4974 5.7 20.2454 6.864 20.1974 8.4V9.012H16.3814V8.04C16.3814 5.664 16.9814 3.828 18.1814 2.532C19.4054 1.236 21.1934 0.587999 23.5454 0.587999C25.8974 0.587999 27.6734 1.248 28.8734 2.568C30.0974 3.864 30.7094 5.7 30.7094 8.076C30.7094 9.78 30.3374 11.172 29.5934 12.252C28.8494 13.332 27.8294 14.064 26.5334 14.448C27.8534 14.856 28.8734 15.684 29.5934 16.932C30.3374 18.18 30.7094 19.788 30.7094 21.756C30.7094 24.468 30.1214 26.58 28.9454 28.092C27.7934 29.58 25.9814 30.324 23.5094 30.324ZM41.0977 30.324C38.5537 30.324 36.7177 29.592 35.5897 28.128C34.4617 26.664 33.8977 24.552 33.8977 21.792C33.8977 19.944 34.1977 18.468 34.7977 17.364C35.4217 16.26 36.3217 15.348 37.4977 14.628C35.3377 13.188 34.2577 11.016 34.2577 8.112C34.2577 5.736 34.8217 3.888 35.9497 2.568C37.0777 1.248 38.7937 0.587999 41.0977 0.587999C43.3777 0.587999 45.0697 1.248 46.1737 2.568C47.3017 3.888 47.8657 5.736 47.8657 8.112C47.8657 9.672 47.5897 10.98 47.0377 12.036C46.4857 13.068 45.6817 13.932 44.6257 14.628C45.8017 15.372 46.7017 16.296 47.3257 17.4C47.9497 18.504 48.2617 19.968 48.2617 21.792C48.2617 24.528 47.6977 26.64 46.5697 28.128C45.4417 29.592 43.6177 30.324 41.0977 30.324ZM41.0977 12.864C43.0897 12.84 44.0857 11.184 44.0857 7.896C44.0857 6.6 43.8457 5.556 43.3657 4.764C42.9097 3.972 42.1537 3.576 41.0977 3.576C40.0417 3.576 39.2617 3.972 38.7577 4.764C38.2777 5.556 38.0377 6.6 38.0377 7.896C38.0377 9.336 38.2657 10.524 38.7217 11.46C39.1777 12.372 39.9697 12.84 41.0977 12.864ZM41.0977 27.264C42.3937 27.264 43.2937 26.796 43.7977 25.86C44.3017 24.9 44.5537 23.568 44.5537 21.864C44.5537 20.304 44.2777 19.032 43.7257 18.048C43.1977 17.064 42.3217 16.56 41.0977 16.536C39.8497 16.56 38.9497 17.064 38.3977 18.048C37.8457 19.032 37.5697 20.304 37.5697 21.864C37.5697 23.568 37.8217 24.9 38.3257 25.86C38.8537 26.796 39.7777 27.264 41.0977 27.264ZM67.9371 36.984C65.8011 36.96 64.2171 36.108 63.1851 34.428C62.1771 32.748 61.5411 30.684 61.2771 28.236C61.0371 25.788 60.9171 22.644 60.9171 18.804C60.9171 14.94 61.0371 11.784 61.2771 9.336C61.5411 6.888 62.1771 4.824 63.1851 3.144C64.2171 1.44 65.8011 0.587999 67.9371 0.587999V3.18C66.9291 3.204 66.1851 3.9 65.7051 5.268C65.2251 6.636 64.9251 8.304 64.8051 10.272C64.6851 12.24 64.6251 14.784 64.6251 17.904V20.46C64.6251 23.364 64.6851 25.776 64.8051 27.696C64.9491 29.616 65.2611 31.212 65.7411 32.484C66.2211 33.756 66.9531 34.404 67.9371 34.428V36.984ZM78.3357 30.324C75.9357 30.324 74.1237 29.544 72.8997 27.984C71.6997 26.424 71.0997 24.336 71.0997 21.72V9.156C71.0997 6.492 71.6877 4.404 72.8637 2.892C74.0637 1.356 75.8877 0.587999 78.3357 0.587999C80.7597 0.587999 82.5597 1.356 83.7357 2.892C84.9357 4.404 85.5357 6.492 85.5357 9.156V21.72C85.5357 24.36 84.9357 26.46 83.7357 28.02C82.5357 29.556 80.7357 30.324 78.3357 30.324ZM78.3357 27.156C80.5437 27.156 81.6477 25.356 81.6477 21.756V9.12C81.6477 7.464 81.4077 6.156 80.9277 5.196C80.4717 4.212 79.6077 3.72 78.3357 3.72C77.0637 3.72 76.1877 4.212 75.7077 5.196C75.2277 6.156 74.9877 7.464 74.9877 9.12V21.756C74.9877 25.356 76.1037 27.156 78.3357 27.156ZM96.3574 30.288C93.8374 30.288 92.0254 29.58 90.9214 28.164C89.8414 26.724 89.3014 24.612 89.3014 21.828H93.1534C93.1534 23.46 93.3694 24.768 93.8014 25.752C94.2574 26.736 95.1334 27.228 96.4294 27.228C97.4134 27.228 98.1454 26.94 98.6254 26.364C99.1054 25.788 99.4054 25.032 99.5254 24.096C99.6694 23.136 99.7414 21.864 99.7414 20.28C99.7414 18.816 99.6574 17.652 99.4894 16.788C99.3454 15.9 99.0334 15.228 98.5534 14.772C98.0974 14.292 97.4014 14.052 96.4654 14.052C95.7214 14.052 95.0614 14.28 94.4854 14.736C93.9334 15.192 93.5134 15.768 93.2254 16.464H89.9494V0.839998H102.513V4.692H93.4414L93.1894 12.756C94.2214 11.676 95.6254 11.136 97.4014 11.136C99.6334 11.136 101.217 11.904 102.153 13.44C103.113 14.952 103.593 17.064 103.593 19.776C103.593 23.088 103.053 25.668 101.973 27.516C100.893 29.364 99.0214 30.288 96.3574 30.288ZM114.054 30.324C111.654 30.324 109.842 29.544 108.618 27.984C107.418 26.424 106.818 24.336 106.818 21.72V9.156C106.818 6.492 107.406 4.404 108.582 2.892C109.782 1.356 111.606 0.587999 114.054 0.587999C116.478 0.587999 118.278 1.356 119.454 2.892C120.654 4.404 121.254 6.492 121.254 9.156V21.72C121.254 24.36 120.654 26.46 119.454 28.02C118.254 29.556 116.454 30.324 114.054 30.324ZM114.054 27.156C116.262 27.156 117.366 25.356 117.366 21.756V9.12C117.366 7.464 117.126 6.156 116.646 5.196C116.19 4.212 115.326 3.72 114.054 3.72C112.782 3.72 111.906 4.212 111.426 5.196C110.946 6.156 110.706 7.464 110.706 9.12V21.756C110.706 25.356 111.822 27.156 114.054 27.156ZM124.372 34.392C125.38 34.368 126.124 33.672 126.604 32.304C127.108 30.936 127.42 29.268 127.54 27.3C127.66 25.308 127.72 22.752 127.72 19.632V17.112C127.72 14.208 127.648 11.796 127.504 9.876C127.384 7.956 127.072 6.36 126.568 5.088C126.088 3.816 125.356 3.168 124.372 3.144V0.587999C126.532 0.587999 128.116 1.428 129.124 3.108C130.156 4.788 130.792 6.852 131.032 9.3C131.296 11.748 131.428 14.892 131.428 18.732C131.428 22.596 131.296 25.752 131.032 28.2C130.792 30.648 130.156 32.712 129.124 34.392C128.116 36.096 126.532 36.96 124.372 36.984V34.392ZM149.654 30.288C147.134 30.288 145.322 29.58 144.218 28.164C143.138 26.724 142.598 24.612 142.598 21.828H146.45C146.45 23.46 146.666 24.768 147.098 25.752C147.554 26.736 148.43 27.228 149.726 27.228C150.71 27.228 151.442 26.94 151.922 26.364C152.402 25.788 152.702 25.032 152.822 24.096C152.966 23.136 153.038 21.864 153.038 20.28C153.038 18.816 152.954 17.652 152.786 16.788C152.642 15.9 152.33 15.228 151.85 14.772C151.394 14.292 150.698 14.052 149.762 14.052C149.018 14.052 148.358 14.28 147.782 14.736C147.23 15.192 146.81 15.768 146.522 16.464H143.246V0.839998H155.81V4.692H146.738L146.486 12.756C147.518 11.676 148.922 11.136 150.698 11.136C152.93 11.136 154.514 11.904 155.45 13.44C156.41 14.952 156.89 17.064 156.89 19.776C156.89 23.088 156.35 25.668 155.27 27.516C154.19 29.364 152.318 30.288 149.654 30.288ZM166.775 30.288C164.255 30.288 162.443 29.58 161.339 28.164C160.259 26.724 159.719 24.612 159.719 21.828H163.571C163.571 23.46 163.787 24.768 164.219 25.752C164.675 26.736 165.551 27.228 166.847 27.228C167.831 27.228 168.563 26.94 169.043 26.364C169.523 25.788 169.823 25.032 169.943 24.096C170.087 23.136 170.159 21.864 170.159 20.28C170.159 18.816 170.075 17.652 169.907 16.788C169.763 15.9 169.451 15.228 168.971 14.772C168.515 14.292 167.819 14.052 166.883 14.052C166.139 14.052 165.479 14.28 164.903 14.736C164.351 15.192 163.931 15.768 163.643 16.464H160.367V0.839998H172.931V4.692H163.859L163.607 12.756C164.639 11.676 166.043 11.136 167.819 11.136C170.051 11.136 171.635 11.904 172.571 13.44C173.531 14.952 174.011 17.064 174.011 19.776C174.011 23.088 173.471 25.668 172.391 27.516C171.311 29.364 169.439 30.288 166.775 30.288ZM183.896 30.288C181.376 30.288 179.564 29.58 178.46 28.164C177.38 26.724 176.84 24.612 176.84 21.828H180.692C180.692 23.46 180.908 24.768 181.34 25.752C181.796 26.736 182.672 27.228 183.968 27.228C184.952 27.228 185.684 26.94 186.164 26.364C186.644 25.788 186.944 25.032 187.064 24.096C187.208 23.136 187.28 21.864 187.28 20.28C187.28 18.816 187.196 17.652 187.028 16.788C186.884 15.9 186.572 15.228 186.092 14.772C185.636 14.292 184.94 14.052 184.004 14.052C183.26 14.052 182.6 14.28 182.024 14.736C181.472 15.192 181.052 15.768 180.764 16.464H177.488V0.839998H190.052V4.692H180.98L180.728 12.756C181.76 11.676 183.164 11.136 184.94 11.136C187.172 11.136 188.756 11.904 189.692 13.44C190.652 14.952 191.132 17.064 191.132 19.776C191.132 23.088 190.592 25.668 189.512 27.516C188.432 29.364 186.56 30.288 183.896 30.288ZM209.748 30.324C207.348 30.324 205.548 29.448 204.348 27.696C203.172 25.92 202.584 23.604 202.584 20.748V10.92C202.584 7.776 203.136 5.268 204.24 3.396C205.344 1.524 207.18 0.587999 209.748 0.587999C212.004 0.587999 213.744 1.2 214.968 2.424C216.192 3.648 216.828 5.4 216.876 7.68L216.912 8.112H213.024C213.024 6.624 212.784 5.532 212.304 4.836C211.824 4.116 210.972 3.756 209.748 3.756C207.54 3.756 206.436 5.832 206.436 9.984V14.412C206.82 13.788 207.372 13.296 208.092 12.936C208.836 12.576 209.7 12.396 210.684 12.396C212.964 12.396 214.584 13.128 215.544 14.592C216.504 16.032 216.984 18.108 216.984 20.82C216.984 23.676 216.396 25.98 215.22 27.732C214.044 29.46 212.22 30.324 209.748 30.324ZM209.748 27.12C210.948 27.12 211.8 26.628 212.304 25.644C212.832 24.66 213.096 23.364 213.096 21.756C213.096 20.292 213.036 19.128 212.916 18.264C212.796 17.4 212.496 16.692 212.016 16.14C211.536 15.588 210.78 15.312 209.748 15.312C209.004 15.312 208.344 15.504 207.768 15.888C207.216 16.272 206.772 16.74 206.436 17.292V21.648C206.436 23.304 206.688 24.636 207.192 25.644C207.72 26.628 208.572 27.12 209.748 27.12ZM227.854 30.324C225.454 30.324 223.654 29.448 222.454 27.696C221.278 25.92 220.69 23.604 220.69 20.748V10.92C220.69 7.776 221.242 5.268 222.346 3.396C223.45 1.524 225.286 0.587999 227.854 0.587999C230.11 0.587999 231.85 1.2 233.074 2.424C234.298 3.648 234.934 5.4 234.982 7.68L235.018 8.112H231.13C231.13 6.624 230.89 5.532 230.41 4.836C229.93 4.116 229.078 3.756 227.854 3.756C225.646 3.756 224.542 5.832 224.542 9.984V14.412C224.926 13.788 225.478 13.296 226.198 12.936C226.942 12.576 227.806 12.396 228.79 12.396C231.07 12.396 232.69 13.128 233.65 14.592C234.61 16.032 235.09 18.108 235.09 20.82C235.09 23.676 234.502 25.98 233.326 27.732C232.15 29.46 230.326 30.324 227.854 30.324ZM227.854 27.12C229.054 27.12 229.906 26.628 230.41 25.644C230.938 24.66 231.202 23.364 231.202 21.756C231.202 20.292 231.142 19.128 231.022 18.264C230.902 17.4 230.602 16.692 230.122 16.14C229.642 15.588 228.886 15.312 227.854 15.312C227.11 15.312 226.45 15.504 225.874 15.888C225.322 16.272 224.878 16.74 224.542 17.292V21.648C224.542 23.304 224.794 24.636 225.298 25.644C225.826 26.628 226.678 27.12 227.854 27.12ZM253.538 3.864H245.726V0.839998H257.39V2.712L251.99 30H248.282L253.538 3.864ZM267.424 3.864H259.612V0.839998H271.276V2.712L265.876 30H262.168L267.424 3.864Z" fill="white"/>
</svg>
